STARTFONT 2.1
FONT -artwiz-lime-bold-r-bold--10-110-75-75-m-50-ISO8859-1
SIZE 10 75 75
FONTBOUNDINGBOX 8 16 0 -2
STARTPROPERTIES 27
FONTNAME_REGISTRY ""
FOUNDRY "artwiz"
FAMILY_NAME "lime"
WEIGHT_NAME "bold"
SLANT "r"
SETWIDTH_NAME "normal"
ADD_STYLE_NAME ""
PIXEL_SIZE 10
POINT_SIZE 110
RESOLUTION_X 75
RESOLUTION_Y 75
SPACING "m"
AVERAGE_WIDTH 50
CHARSET_REGISTRY "ISO8859"
CHARSET_ENCODING "1"
COPYRIGHT "artwiz, latin1 and bold chars by Sergio Martins"
FACE_NAME "lime"
WEIGHT 10
RESOLUTION 99
X_HEIGHT 6
QUAD_WIDTH 7
_XMBDFED_INFO "Edited with xmbdfed 4.7."
DEFAULT_CHAR 63
FONT_ASCENT 9
FONT_DESCENT 2
_ORIGINAL_FONT_NAME "lime"
_GBDFED_INFO "Edited with gbdfed 1.1."
ENDPROPERTIES
CHARS 210
STARTCHAR char0
ENCODING 0
SWIDTH 768 0
DWIDTH 8 0
BBX 6 12 1 1
BITMAP
FC
FC
FC
FC
FC
FC
FC
FC
FC
FC
FC
FC
ENDCHAR
STARTCHAR char1
ENCODING 1
SWIDTH 768 0
DWIDTH 8 0
BBX 6 5 1 3
BITMAP
30
78
FC
78
30
ENDCHAR
STARTCHAR char2
ENCODING 2
SWIDTH 768 0
DWIDTH 8 0
BBX 6 12 1 1
BITMAP
FC
78
FC
78
FC
78
FC
78
FC
78
FC
78
ENDCHAR
STARTCHAR char9
ENCODING 9
SWIDTH 768 0
DWIDTH 8 0
BBX 0 0 0 0
BITMAP
ENDCHAR
STARTCHAR char10
ENCODING 10
SWIDTH 768 0
DWIDTH 8 0
BBX 0 0 0 0
BITMAP
ENDCHAR
STARTCHAR char11
ENCODING 11
SWIDTH 768 0
DWIDTH 8 0
BBX 5 9 0 5
BITMAP
18
18
18
18
18
18
18
18
F8
ENDCHAR
STARTCHAR char11
ENCODING 12
SWIDTH 768 0
DWIDTH 8 0
BBX 5 7 0 -1
BITMAP
F8
18
18
18
18
18
18
ENDCHAR
STARTCHAR char11
ENCODING 13
SWIDTH 768 0
DWIDTH 8 0
BBX 5 7 3 -1
BITMAP
F8
C0
C0
C0
C0
C0
C0
ENDCHAR
STARTCHAR char11
ENCODING 14
SWIDTH 768 0
DWIDTH 8 0
BBX 5 9 3 5
BITMAP
C0
C0
C0
C0
C0
C0
C0
C0
F8
ENDCHAR
STARTCHAR char15
ENCODING 15
SWIDTH 768 0
DWIDTH 8 0
BBX 7 15 0 -1
BITMAP
18
18
18
18
18
18
18
18
FE
18
18
18
18
18
18
ENDCHAR
STARTCHAR char16
ENCODING 16
SWIDTH 768 0
DWIDTH 8 0
BBX 7 1 0 10
BITMAP
FE
ENDCHAR
STARTCHAR char17
ENCODING 17
SWIDTH 768 0
DWIDTH 8 0
BBX 7 1 0 8
BITMAP
FE
ENDCHAR
STARTCHAR char18
ENCODING 18
SWIDTH 768 0
DWIDTH 8 0
BBX 7 1 0 5
BITMAP
FE
ENDCHAR
STARTCHAR char19
ENCODING 19
SWIDTH 768 0
DWIDTH 8 0
BBX 7 1 0 3
BITMAP
FE
ENDCHAR
STARTCHAR char20
ENCODING 20
SWIDTH 768 0
DWIDTH 8 0
BBX 7 1 0 0
BITMAP
FE
ENDCHAR
STARTCHAR char21
ENCODING 21
SWIDTH 768 0
DWIDTH 8 0
BBX 5 15 3 -1
BITMAP
C0
C0
C0
C0
C0
C0
C0
C0
F8
C0
C0
C0
C0
C0
C0
ENDCHAR
STARTCHAR char22
ENCODING 22
SWIDTH 768 0
DWIDTH 8 0
BBX 5 15 0 -1
BITMAP
18
18
18
18
18
18
18
18
F8
18
18
18
18
18
18
ENDCHAR
STARTCHAR char23
ENCODING 23
SWIDTH 768 0
DWIDTH 8 0
BBX 7 9 0 5
BITMAP
18
18
18
18
18
18
18
18
FE
ENDCHAR
STARTCHAR char24
ENCODING 24
SWIDTH 768 0
DWIDTH 8 0
BBX 7 6 0 0
BITMAP
FE
18
18
18
18
18
ENDCHAR
STARTCHAR char25
ENCODING 25
SWIDTH 768 0
DWIDTH 8 0
BBX 2 15 3 -1
BITMAP
C0
C0
C0
C0
C0
C0
C0
C0
C0
C0
C0
C0
C0
C0
C0
ENDCHAR
STARTCHAR char32
ENCODING 32
SWIDTH 768 0
DWIDTH 8 0
BBX 0 0 0 0
BITMAP
ENDCHAR
STARTCHAR char33
ENCODING 33
SWIDTH 768 0
DWIDTH 8 0
BBX 2 6 2 0
BITMAP
C0
C0
C0
C0
00
C0
ENDCHAR
STARTCHAR char34
ENCODING 34
SWIDTH 768 0
DWIDTH 8 0
BBX 5 3 1 4
BITMAP
D8
D8
D8
ENDCHAR
STARTCHAR char35
ENCODING 35
SWIDTH 768 0
DWIDTH 8 0
BBX 6 5 0 0
BITMAP
48
FC
78
FC
48
ENDCHAR
STARTCHAR char36
ENCODING 36
SWIDTH 768 0
DWIDTH 8 0
BBX 6 7 0 0
BITMAP
30
7C
F0
78
3C
F8
30
ENDCHAR
STARTCHAR char37
ENCODING 37
SWIDTH 768 0
DWIDTH 8 0
BBX 5 6 1 0
BITMAP
C0
D8
30
60
D8
18
ENDCHAR
STARTCHAR char38
ENCODING 38
SWIDTH 768 0
DWIDTH 8 0
BBX 6 6 0 0
BITMAP
60
F0
60
FC
D8
7C
ENDCHAR
STARTCHAR char39
ENCODING 39
SWIDTH 768 0
DWIDTH 8 0
BBX 3 3 1 4
BITMAP
60
60
C0
ENDCHAR
STARTCHAR char40
ENCODING 40
SWIDTH 768 0
DWIDTH 8 0
BBX 3 8 2 -1
BITMAP
60
C0
C0
C0
C0
C0
C0
60
ENDCHAR
STARTCHAR char41
ENCODING 41
SWIDTH 768 0
DWIDTH 8 0
BBX 3 8 2 -1
BITMAP
C0
60
60
60
60
60
60
C0
ENDCHAR
STARTCHAR char42
ENCODING 42
SWIDTH 768 0
DWIDTH 8 0
BBX 5 5 1 0
BITMAP
D8
70
F8
70
D8
ENDCHAR
STARTCHAR char43
ENCODING 43
SWIDTH 768 0
DWIDTH 8 0
BBX 6 5 0 1
BITMAP
30
30
FC
30
30
ENDCHAR
STARTCHAR char44
ENCODING 44
SWIDTH 768 0
DWIDTH 8 0
BBX 3 3 1 -1
BITMAP
60
60
C0
ENDCHAR
STARTCHAR char45
ENCODING 45
SWIDTH 768 0
DWIDTH 8 0
BBX 5 1 1 3
BITMAP
F8
ENDCHAR
STARTCHAR char46
ENCODING 46
SWIDTH 768 0
DWIDTH 8 0
BBX 2 2 2 0
BITMAP
C0
C0
ENDCHAR
STARTCHAR char47
ENCODING 47
SWIDTH 768 0
DWIDTH 8 0
BBX 5 8 1 -1
BITMAP
18
18
30
30
60
60
C0
C0
ENDCHAR
STARTCHAR char48
ENCODING 48
SWIDTH 768 0
DWIDTH 8 0
BBX 5 6 1 0
BITMAP
70
D8
F8
F8
D8
70
ENDCHAR
STARTCHAR char49
ENCODING 49
SWIDTH 768 0
DWIDTH 8 0
BBX 3 6 1 0
BITMAP
60
E0
60
60
60
60
ENDCHAR
STARTCHAR char50
ENCODING 50
SWIDTH 768 0
DWIDTH 8 0
BBX 5 6 1 0
BITMAP
F0
18
18
70
C0
F8
ENDCHAR
STARTCHAR char51
ENCODING 51
SWIDTH 768 0
DWIDTH 8 0
BBX 5 6 1 0
BITMAP
F0
18
70
18
18
F0
ENDCHAR
STARTCHAR char52
ENCODING 52
SWIDTH 768 0
DWIDTH 8 0
BBX 5 6 1 0
BITMAP
D8
D8
D8
78
18
18
ENDCHAR
STARTCHAR char53
ENCODING 53
SWIDTH 768 0
DWIDTH 8 0
BBX 5 6 1 0
BITMAP
F8
C0
F0
18
18
F0
ENDCHAR
STARTCHAR char54
ENCODING 54
SWIDTH 768 0
DWIDTH 8 0
BBX 5 6 1 0
BITMAP
70
C0
F0
D8
D8
70
ENDCHAR
STARTCHAR char55
ENCODING 55
SWIDTH 768 0
DWIDTH 8 0
BBX 5 6 1 0
BITMAP
F8
18
30
30
60
60
ENDCHAR
STARTCHAR char56
ENCODING 56
SWIDTH 768 0
DWIDTH 8 0
BBX 5 6 1 0
BITMAP
70
D8
70
D8
D8
70
ENDCHAR
STARTCHAR char57
ENCODING 57
SWIDTH 768 0
DWIDTH 8 0
BBX 5 6 1 0
BITMAP
70
D8
D8
78
18
70
ENDCHAR
STARTCHAR char58
ENCODING 58
SWIDTH 768 0
DWIDTH 8 0
BBX 2 5 2 0
BITMAP
C0
C0
00
C0
C0
ENDCHAR
STARTCHAR char59
ENCODING 59
SWIDTH 768 0
DWIDTH 8 0
BBX 3 6 1 -1
BITMAP
60
60
00
60
60
C0
ENDCHAR
STARTCHAR char60
ENCODING 60
SWIDTH 768 0
DWIDTH 8 0
BBX 5 7 1 0
BITMAP
18
30
60
C0
60
30
18
ENDCHAR
STARTCHAR char61
ENCODING 61
SWIDTH 768 0
DWIDTH 8 0
BBX 5 3 1 2
BITMAP
F8
00
F8
ENDCHAR
STARTCHAR char62
ENCODING 62
SWIDTH 768 0
DWIDTH 8 0
BBX 5 7 1 0
BITMAP
C0
60
30
18
30
60
C0
ENDCHAR
STARTCHAR char63
ENCODING 63
SWIDTH 768 0
DWIDTH 8 0
BBX 5 6 1 0
BITMAP
F0
18
30
60
00
60
ENDCHAR
STARTCHAR char64
ENCODING 64
SWIDTH 768 0
DWIDTH 8 0
BBX 5 6 1 0
BITMAP
70
D8
F8
F8
C0
70
ENDCHAR
STARTCHAR char65
ENCODING 65
SWIDTH 768 0
DWIDTH 8 0
BBX 5 6 1 0
BITMAP
70
D8
D8
F8
D8
D8
ENDCHAR
STARTCHAR char66
ENCODING 66
SWIDTH 768 0
DWIDTH 8 0
BBX 5 6 1 0
BITMAP
F0
D8
F0
D8
D8
F0
ENDCHAR
STARTCHAR char67
ENCODING 67
SWIDTH 768 0
DWIDTH 8 0
BBX 5 6 1 0
BITMAP
78
C0
C0
C0
C0
78
ENDCHAR
STARTCHAR char68
ENCODING 68
SWIDTH 768 0
DWIDTH 8 0
BBX 5 6 1 0
BITMAP
F0
D8
D8
D8
D8
F0
ENDCHAR
STARTCHAR char69
ENCODING 69
SWIDTH 768 0
DWIDTH 8 0
BBX 5 6 1 0
BITMAP
F8
C0
F0
C0
C0
F8
ENDCHAR
STARTCHAR char70
ENCODING 70
SWIDTH 768 0
DWIDTH 8 0
BBX 5 6 1 0
BITMAP
F8
C0
F0
C0
C0
C0
ENDCHAR
STARTCHAR char71
ENCODING 71
SWIDTH 768 0
DWIDTH 8 0
BBX 5 6 1 0
BITMAP
70
C0
F8
D8
D8
70
ENDCHAR
STARTCHAR char72
ENCODING 72
SWIDTH 768 0
DWIDTH 8 0
BBX 5 6 1 0
BITMAP
D8
D8
F8
D8
D8
D8
ENDCHAR
STARTCHAR char73
ENCODING 73
SWIDTH 768 0
DWIDTH 8 0
BBX 4 6 1 0
BITMAP
F0
60
60
60
60
F0
ENDCHAR
STARTCHAR char74
ENCODING 74
SWIDTH 768 0
DWIDTH 8 0
BBX 5 6 1 0
BITMAP
78
18
18
18
D8
70
ENDCHAR
STARTCHAR char75
ENCODING 75
SWIDTH 768 0
DWIDTH 8 0
BBX 5 6 1 0
BITMAP
D8
F0
E0
F0
D8
D8
ENDCHAR
STARTCHAR char76
ENCODING 76
SWIDTH 768 0
DWIDTH 8 0
BBX 5 6 1 0
BITMAP
C0
C0
C0
C0
C0
F8
ENDCHAR
STARTCHAR char77
ENCODING 77
SWIDTH 768 0
DWIDTH 8 0
BBX 5 6 1 0
BITMAP
D8
F8
F8
D8
D8
D8
ENDCHAR
STARTCHAR char78
ENCODING 78
SWIDTH 768 0
DWIDTH 8 0
BBX 5 6 1 0
BITMAP
F0
D8
D8
D8
D8
D8
ENDCHAR
STARTCHAR char79
ENCODING 79
SWIDTH 768 0
DWIDTH 8 0
BBX 5 6 1 0
BITMAP
70
D8
D8
D8
D8
70
ENDCHAR
STARTCHAR char80
ENCODING 80
SWIDTH 768 0
DWIDTH 8 0
BBX 5 6 1 0
BITMAP
F0
D8
D8
F0
C0
C0
ENDCHAR
STARTCHAR char81
ENCODING 81
SWIDTH 768 0
DWIDTH 8 0
BBX 5 7 1 -1
BITMAP
70
D8
D8
D8
D8
70
38
ENDCHAR
STARTCHAR char82
ENCODING 82
SWIDTH 768 0
DWIDTH 8 0
BBX 5 6 1 0
BITMAP
F0
D8
D8
F0
D8
D8
ENDCHAR
STARTCHAR char83
ENCODING 83
SWIDTH 768 0
DWIDTH 8 0
BBX 5 6 1 0
BITMAP
78
C0
70
18
18
F0
ENDCHAR
STARTCHAR char84
ENCODING 84
SWIDTH 768 0
DWIDTH 8 0
BBX 6 6 0 0
BITMAP
FC
30
30
30
30
30
ENDCHAR
STARTCHAR char85
ENCODING 85
SWIDTH 768 0
DWIDTH 8 0
BBX 5 6 1 0
BITMAP
D8
D8
D8
D8
D8
78
ENDCHAR
STARTCHAR char86
ENCODING 86
SWIDTH 768 0
DWIDTH 8 0
BBX 5 6 1 0
BITMAP
D8
D8
D8
D8
70
70
ENDCHAR
STARTCHAR char87
ENCODING 87
SWIDTH 768 0
DWIDTH 8 0
BBX 5 6 1 0
BITMAP
D8
D8
D8
F8
F8
D8
ENDCHAR
STARTCHAR char88
ENCODING 88
SWIDTH 768 0
DWIDTH 8 0
BBX 5 6 1 0
BITMAP
D8
D8
70
D8
D8
D8
ENDCHAR
STARTCHAR char89
ENCODING 89
SWIDTH 768 0
DWIDTH 8 0
BBX 6 6 0 0
BITMAP
CC
78
30
30
30
30
ENDCHAR
STARTCHAR char90
ENCODING 90
SWIDTH 768 0
DWIDTH 8 0
BBX 5 6 1 0
BITMAP
F8
18
30
60
C0
F8
ENDCHAR
STARTCHAR char91
ENCODING 91
SWIDTH 768 0
DWIDTH 8 0
BBX 4 8 1 -1
BITMAP
F0
C0
C0
C0
C0
C0
C0
F0
ENDCHAR
STARTCHAR char92
ENCODING 92
SWIDTH 768 0
DWIDTH 8 0
BBX 5 8 1 -1
BITMAP
C0
C0
60
60
30
30
18
18
ENDCHAR
STARTCHAR char93
ENCODING 93
SWIDTH 768 0
DWIDTH 8 0
BBX 4 8 1 -1
BITMAP
F0
30
30
30
30
30
30
F0
ENDCHAR
STARTCHAR char94
ENCODING 94
SWIDTH 768 0
DWIDTH 8 0
BBX 6 3 0 4
BITMAP
30
78
CC
ENDCHAR
STARTCHAR char95
ENCODING 95
SWIDTH 768 0
DWIDTH 8 0
BBX 5 1 1 -1
BITMAP
F8
ENDCHAR
STARTCHAR char96
ENCODING 96
SWIDTH 768 0
DWIDTH 8 0
BBX 3 3 2 4
BITMAP
C0
C0
60
ENDCHAR
STARTCHAR char97
ENCODING 97
SWIDTH 768 0
DWIDTH 8 0
BBX 5 5 1 0
BITMAP
78
D8
D8
F8
78
ENDCHAR
STARTCHAR char98
ENCODING 98
SWIDTH 768 0
DWIDTH 8 0
BBX 5 7 1 0
BITMAP
C0
C0
F0
D8
D8
D8
F0
ENDCHAR
STARTCHAR char99
ENCODING 99
SWIDTH 768 0
DWIDTH 8 0
BBX 5 5 1 0
BITMAP
78
C0
C0
C0
78
ENDCHAR
STARTCHAR char100
ENCODING 100
SWIDTH 768 0
DWIDTH 8 0
BBX 5 7 1 0
BITMAP
18
18
78
D8
D8
D8
78
ENDCHAR
STARTCHAR char101
ENCODING 101
SWIDTH 768 0
DWIDTH 8 0
BBX 5 5 1 0
BITMAP
70
D8
F8
C0
78
ENDCHAR
STARTCHAR char102
ENCODING 102
SWIDTH 768 0
DWIDTH 8 0
BBX 4 7 1 0
BITMAP
30
60
F0
60
60
60
60
ENDCHAR
STARTCHAR char103
ENCODING 103
SWIDTH 768 0
DWIDTH 8 0
BBX 5 7 1 -2
BITMAP
78
D8
D8
D8
78
18
70
ENDCHAR
STARTCHAR char104
ENCODING 104
SWIDTH 768 0
DWIDTH 8 0
BBX 5 7 1 0
BITMAP
C0
C0
F0
D8
D8
D8
D8
ENDCHAR
STARTCHAR char105
ENCODING 105
SWIDTH 768 0
DWIDTH 8 0
BBX 2 7 3 0
BITMAP
C0
00
C0
C0
C0
C0
C0
ENDCHAR
STARTCHAR char106
ENCODING 106
SWIDTH 768 0
DWIDTH 8 0
BBX 4 9 1 -2
BITMAP
30
00
30
30
30
30
30
30
E0
ENDCHAR
STARTCHAR char107
ENCODING 107
SWIDTH 768 0
DWIDTH 8 0
BBX 5 7 1 0
BITMAP
C0
C0
D8
F0
E0
F0
D8
ENDCHAR
STARTCHAR char108
ENCODING 108
SWIDTH 768 0
DWIDTH 8 0
BBX 2 7 3 0
BITMAP
C0
C0
C0
C0
C0
C0
C0
ENDCHAR
STARTCHAR char109
ENCODING 109
SWIDTH 768 0
DWIDTH 8 0
BBX 5 5 1 0
BITMAP
D8
F8
F8
D8
D8
ENDCHAR
STARTCHAR char110
ENCODING 110
SWIDTH 768 0
DWIDTH 8 0
BBX 5 5 1 0
BITMAP
F0
D8
D8
D8
D8
ENDCHAR
STARTCHAR char111
ENCODING 111
SWIDTH 768 0
DWIDTH 8 0
BBX 5 5 1 0
BITMAP
70
D8
D8
D8
70
ENDCHAR
STARTCHAR char112
ENCODING 112
SWIDTH 768 0
DWIDTH 8 0
BBX 5 7 1 -2
BITMAP
F0
D8
D8
D8
F0
C0
C0
ENDCHAR
STARTCHAR char113
ENCODING 113
SWIDTH 768 0
DWIDTH 8 0
BBX 5 7 1 -2
BITMAP
78
D8
D8
D8
78
18
18
ENDCHAR
STARTCHAR char114
ENCODING 114
SWIDTH 768 0
DWIDTH 8 0
BBX 5 5 1 0
BITMAP
F8
E0
C0
C0
C0
ENDCHAR
STARTCHAR char115
ENCODING 115
SWIDTH 768 0
DWIDTH 8 0
BBX 5 5 1 0
BITMAP
78
C0
70
18
F0
ENDCHAR
STARTCHAR char116
ENCODING 116
SWIDTH 768 0
DWIDTH 8 0
BBX 4 6 1 0
BITMAP
60
F0
60
60
60
60
ENDCHAR
STARTCHAR char117
ENCODING 117
SWIDTH 768 0
DWIDTH 8 0
BBX 5 5 1 0
BITMAP
D8
D8
D8
D8
78
ENDCHAR
STARTCHAR char118
ENCODING 118
SWIDTH 768 0
DWIDTH 8 0
BBX 5 5 1 0
BITMAP
D8
D8
D8
70
70
ENDCHAR
STARTCHAR char119
ENCODING 119
SWIDTH 768 0
DWIDTH 8 0
BBX 5 5 1 0
BITMAP
D8
D8
F8
F8
D8
ENDCHAR
STARTCHAR char120
ENCODING 120
SWIDTH 768 0
DWIDTH 8 0
BBX 5 5 1 0
BITMAP
D8
D8
70
D8
D8
ENDCHAR
STARTCHAR char121
ENCODING 121
SWIDTH 768 0
DWIDTH 8 0
BBX 5 7 1 -2
BITMAP
D8
D8
D8
D8
78
18
70
ENDCHAR
STARTCHAR char122
ENCODING 122
SWIDTH 768 0
DWIDTH 8 0
BBX 5 5 1 0
BITMAP
F8
30
60
C0
F8
ENDCHAR
STARTCHAR char123
ENCODING 123
SWIDTH 768 0
DWIDTH 8 0
BBX 4 8 1 -1
BITMAP
30
60
60
E0
60
60
60
30
ENDCHAR
STARTCHAR char124
ENCODING 124
SWIDTH 768 0
DWIDTH 8 0
BBX 2 9 2 -1
BITMAP
C0
C0
C0
C0
C0
C0
C0
C0
C0
ENDCHAR
STARTCHAR char125
ENCODING 125
SWIDTH 768 0
DWIDTH 8 0
BBX 4 8 2 -1
BITMAP
C0
60
60
70
60
60
60
C0
ENDCHAR
STARTCHAR char126
ENCODING 126
SWIDTH 768 0
DWIDTH 8 0
BBX 6 3 0 3
BITMAP
60
FC
18
ENDCHAR
STARTCHAR char33
ENCODING 161
SWIDTH 768 0
DWIDTH 8 0
BBX 2 6 2 0
BITMAP
C0
00
C0
C0
C0
C0
ENDCHAR
STARTCHAR char99
ENCODING 162
SWIDTH 768 0
DWIDTH 8 0
BBX 5 7 1 -1
BITMAP
18
78
B0
B0
F0
78
60
ENDCHAR
STARTCHAR char156
ENCODING 163
SWIDTH 768 0
DWIDTH 8 0
BBX 6 7 0 0
BITMAP
38
60
60
F0
60
6C
F8
ENDCHAR
STARTCHAR char164
ENCODING 164
SWIDTH 768 0
DWIDTH 8 0
BBX 6 6 1 1
BITMAP
CC
78
78
78
78
CC
ENDCHAR
STARTCHAR char157
ENCODING 165
SWIDTH 768 0
DWIDTH 8 0
BBX 6 9 0 0
BITMAP
CC
CC
78
30
FC
30
FC
30
30
ENDCHAR
STARTCHAR char250
ENCODING 166
SWIDTH 768 0
DWIDTH 8 0
BBX 3 1 2 1
BITMAP
E0
ENDCHAR
STARTCHAR char167
ENCODING 167
SWIDTH 768 0
DWIDTH 8 0
BBX 6 9 0 -1
BITMAP
38
6C
70
D8
CC
6C
38
D8
70
ENDCHAR
STARTCHAR char168
ENCODING 168
SWIDTH 768 0
DWIDTH 8 0
BBX 5 1 2 6
BITMAP
D8
ENDCHAR
STARTCHAR char169
ENCODING 169
SWIDTH 768 0
DWIDTH 8 0
BBX 7 7 1 0
BITMAP
7C
C6
FE
E6
FE
C6
7C
ENDCHAR
STARTCHAR char97
ENCODING 170
SWIDTH 768 0
DWIDTH 8 0
BBX 5 4 1 4
BITMAP
78
D8
F8
78
ENDCHAR
STARTCHAR char174
ENCODING 171
SWIDTH 768 0
DWIDTH 8 0
BBX 5 3 1 2
BITMAP
78
F0
78
ENDCHAR
STARTCHAR char172
ENCODING 172
SWIDTH 768 0
DWIDTH 8 0
BBX 6 3 1 1
BITMAP
FC
0C
0C
ENDCHAR
STARTCHAR char173
ENCODING 173
SWIDTH 768 0
DWIDTH 8 0
BBX 0 0 0 0
BITMAP
ENDCHAR
STARTCHAR char174
ENCODING 174
SWIDTH 768 0
DWIDTH 8 0
BBX 7 8 1 0
BITMAP
7C
C6
FE
EE
F6
EE
C6
7C
ENDCHAR
STARTCHAR char175
ENCODING 175
SWIDTH 768 0
DWIDTH 8 0
BBX 4 1 2 7
BITMAP
F0
ENDCHAR
STARTCHAR char176
ENCODING 176
SWIDTH 768 0
DWIDTH 8 0
BBX 5 5 0 4
BITMAP
F8
F8
D8
F8
F8
ENDCHAR
STARTCHAR char241
ENCODING 177
SWIDTH 768 0
DWIDTH 8 0
BBX 4 5 1 1
BITMAP
60
F0
60
00
F0
ENDCHAR
STARTCHAR char253
ENCODING 178
SWIDTH 768 0
DWIDTH 8 0
BBX 4 4 1 3
BITMAP
E0
30
60
F0
ENDCHAR
STARTCHAR char253
ENCODING 179
SWIDTH 768 0
DWIDTH 8 0
BBX 3 5 1 2
BITMAP
C0
60
C0
60
C0
ENDCHAR
STARTCHAR char180
ENCODING 180
SWIDTH 768 0
DWIDTH 8 0
BBX 3 2 1 6
BITMAP
60
C0
ENDCHAR
STARTCHAR char117
ENCODING 181
SWIDTH 768 0
DWIDTH 8 0
BBX 5 6 1 -1
BITMAP
D8
D8
D8
D8
F0
C0
ENDCHAR
STARTCHAR char113
ENCODING 182
SWIDTH 768 0
DWIDTH 8 0
BBX 7 7 1 0
BITMAP
7E
DE
DA
DA
7A
1A
1A
ENDCHAR
STARTCHAR char183
ENCODING 183
SWIDTH 768 0
DWIDTH 8 0
BBX 2 1 3 3
BITMAP
C0
ENDCHAR
STARTCHAR char184
ENCODING 184
SWIDTH 768 0
DWIDTH 8 0
BBX 4 3 2 1
BITMAP
60
30
F0
ENDCHAR
STARTCHAR char185
ENCODING 185
SWIDTH 768 0
DWIDTH 8 0
BBX 3 5 1 2
BITMAP
60
E0
60
60
60
ENDCHAR
STARTCHAR char186
ENCODING 186
SWIDTH 768 0
DWIDTH 8 0
BBX 5 4 1 4
BITMAP
70
D8
D8
70
ENDCHAR
STARTCHAR char175
ENCODING 187
SWIDTH 768 0
DWIDTH 8 0
BBX 5 3 1 2
BITMAP
F0
78
F0
ENDCHAR
STARTCHAR char179
ENCODING 188
SWIDTH 768 0
DWIDTH 8 0
BBX 6 8 1 0
BITMAP
60
E0
60
78
38
58
7C
18
ENDCHAR
STARTCHAR char189
ENCODING 189
SWIDTH 768 0
DWIDTH 8 0
BBX 6 7 1 1
BITMAP
60
E0
60
78
0C
18
3C
ENDCHAR
STARTCHAR char179
ENCODING 190
SWIDTH 768 0
DWIDTH 8 0
BBX 7 8 0 0
BITMAP
E0
20
60
2C
FC
2C
3E
0C
ENDCHAR
STARTCHAR char63
ENCODING 191
SWIDTH 768 0
DWIDTH 8 0
BBX 5 6 1 0
BITMAP
30
00
30
60
C0
78
ENDCHAR
STARTCHAR char196
ENCODING 192
SWIDTH 768 0
DWIDTH 8 0
BBX 5 9 1 0
BITMAP
60
30
00
70
D8
D8
F8
D8
D8
ENDCHAR
STARTCHAR char196
ENCODING 193
SWIDTH 768 0
DWIDTH 8 0
BBX 5 9 1 0
BITMAP
30
60
00
70
D8
D8
F8
D8
D8
ENDCHAR
STARTCHAR char196
ENCODING 194
SWIDTH 768 0
DWIDTH 8 0
BBX 5 8 1 0
BITMAP
70
D8
00
70
D8
D8
F8
D8
ENDCHAR
STARTCHAR char196
ENCODING 195
SWIDTH 768 0
DWIDTH 8 0
BBX 5 8 1 0
BITMAP
78
F0
00
70
D8
D8
F8
D8
ENDCHAR
STARTCHAR char196
ENCODING 196
SWIDTH 768 0
DWIDTH 8 0
BBX 5 8 1 0
BITMAP
D8
00
70
D8
D8
F8
D8
D8
ENDCHAR
STARTCHAR char197
ENCODING 197
SWIDTH 768 0
DWIDTH 8 0
BBX 5 9 1 0
BITMAP
20
50
20
70
D8
D8
F8
D8
D8
ENDCHAR
STARTCHAR char197
ENCODING 198
SWIDTH 768 0
DWIDTH 8 0
BBX 6 6 0 0
BITMAP
7C
F0
B8
F0
F0
BC
ENDCHAR
STARTCHAR char67
ENCODING 199
SWIDTH 768 0
DWIDTH 8 0
BBX 5 8 1 -2
BITMAP
78
C0
C0
C0
C0
78
30
60
ENDCHAR
STARTCHAR char69
ENCODING 200
SWIDTH 768 0
DWIDTH 8 0
BBX 5 9 1 0
BITMAP
60
30
00
F8
C0
F0
C0
C0
F8
ENDCHAR
STARTCHAR char69
ENCODING 201
SWIDTH 768 0
DWIDTH 8 0
BBX 5 9 1 0
BITMAP
30
60
00
F8
C0
F0
C0
C0
F8
ENDCHAR
STARTCHAR char69
ENCODING 202
SWIDTH 768 0
DWIDTH 8 0
BBX 5 9 1 0
BITMAP
70
D8
00
F8
C0
F0
C0
C0
F8
ENDCHAR
STARTCHAR char69
ENCODING 203
SWIDTH 768 0
DWIDTH 8 0
BBX 5 8 1 0
BITMAP
D8
00
F8
C0
F0
C0
C0
F8
ENDCHAR
STARTCHAR char73
ENCODING 204
SWIDTH 768 0
DWIDTH 8 0
BBX 4 9 1 0
BITMAP
C0
60
00
F0
60
60
60
60
F0
ENDCHAR
STARTCHAR char73
ENCODING 205
SWIDTH 768 0
DWIDTH 8 0
BBX 4 9 1 0
BITMAP
30
60
00
F0
60
60
60
60
F0
ENDCHAR
STARTCHAR char73
ENCODING 206
SWIDTH 768 0
DWIDTH 8 0
BBX 4 8 1 0
BITMAP
60
F0
00
F0
60
60
60
F0
ENDCHAR
STARTCHAR char73
ENCODING 207
SWIDTH 768 0
DWIDTH 8 0
BBX 5 8 1 0
BITMAP
D8
00
F0
60
60
60
60
F0
ENDCHAR
STARTCHAR char68
ENCODING 208
SWIDTH 768 0
DWIDTH 8 0
BBX 6 6 0 0
BITMAP
78
6C
FC
6C
6C
78
ENDCHAR
STARTCHAR char78
ENCODING 209
SWIDTH 768 0
DWIDTH 8 0
BBX 5 8 1 0
BITMAP
78
F0
00
F0
D8
D8
D8
D8
ENDCHAR
STARTCHAR char214
ENCODING 210
SWIDTH 768 0
DWIDTH 8 0
BBX 5 9 1 0
BITMAP
C0
60
00
70
D8
D8
D8
D8
70
ENDCHAR
STARTCHAR char214
ENCODING 211
SWIDTH 768 0
DWIDTH 8 0
BBX 5 9 1 0
BITMAP
30
60
00
70
D8
D8
D8
D8
70
ENDCHAR
STARTCHAR char214
ENCODING 212
SWIDTH 768 0
DWIDTH 8 0
BBX 5 9 1 0
BITMAP
70
D8
00
70
D8
D8
D8
D8
70
ENDCHAR
STARTCHAR char214
ENCODING 213
SWIDTH 768 0
DWIDTH 8 0
BBX 5 9 1 0
BITMAP
78
F0
00
70
D8
D8
D8
D8
70
ENDCHAR
STARTCHAR char214
ENCODING 214
SWIDTH 768 0
DWIDTH 8 0
BBX 6 8 0 0
BITMAP
6C
00
38
6C
6C
6C
6C
38
ENDCHAR
STARTCHAR char215
ENCODING 215
SWIDTH 768 0
DWIDTH 8 0
BBX 4 3 1 3
BITMAP
F0
60
F0
ENDCHAR
STARTCHAR char237
ENCODING 216
SWIDTH 768 0
DWIDTH 8 0
BBX 6 8 0 0
BITMAP
0C
78
DC
FC
FC
EC
78
C0
ENDCHAR
STARTCHAR char85
ENCODING 217
SWIDTH 768 0
DWIDTH 8 0
BBX 5 8 1 0
BITMAP
60
30
C0
D8
D8
D8
D8
78
ENDCHAR
STARTCHAR char85
ENCODING 218
SWIDTH 768 0
DWIDTH 8 0
BBX 5 8 1 0
BITMAP
30
60
18
D8
D8
D8
D8
78
ENDCHAR
STARTCHAR char85
ENCODING 219
SWIDTH 768 0
DWIDTH 8 0
BBX 5 8 1 0
BITMAP
70
D8
00
D8
D8
D8
D8
78
ENDCHAR
STARTCHAR char85
ENCODING 220
SWIDTH 768 0
DWIDTH 8 0
BBX 5 8 1 0
BITMAP
D8
00
00
D8
D8
D8
D8
78
ENDCHAR
STARTCHAR char89
ENCODING 221
SWIDTH 768 0
DWIDTH 8 0
BBX 6 8 0 0
BITMAP
18
30
CC
78
30
30
30
30
ENDCHAR
STARTCHAR char112
ENCODING 222
SWIDTH 768 0
DWIDTH 8 0
BBX 5 9 0 -1
BITMAP
C0
C0
C0
F0
D8
D8
F0
C0
C0
ENDCHAR
STARTCHAR char225
ENCODING 223
SWIDTH 768 0
DWIDTH 8 0
BBX 5 8 0 -1
BITMAP
70
D8
F0
D8
D8
F0
C0
C0
ENDCHAR
STARTCHAR char228
ENCODING 224
SWIDTH 768 0
DWIDTH 8 0
BBX 5 8 1 0
BITMAP
C0
60
00
78
D8
D8
F8
78
ENDCHAR
STARTCHAR char228
ENCODING 225
SWIDTH 768 0
DWIDTH 8 0
BBX 5 8 1 0
BITMAP
30
60
00
78
D8
D8
F8
78
ENDCHAR
STARTCHAR char228
ENCODING 226
SWIDTH 768 0
DWIDTH 8 0
BBX 5 8 1 0
BITMAP
70
D8
00
78
D8
D8
F8
78
ENDCHAR
STARTCHAR char228
ENCODING 227
SWIDTH 768 0
DWIDTH 8 0
BBX 5 8 1 0
BITMAP
78
F0
00
78
D8
D8
F8
78
ENDCHAR
STARTCHAR char228
ENCODING 228
SWIDTH 768 0
DWIDTH 8 0
BBX 6 7 0 0
BITMAP
6C
00
3C
6C
6C
7C
3C
ENDCHAR
STARTCHAR char229
ENCODING 229
SWIDTH 768 0
DWIDTH 8 0
BBX 5 8 1 0
BITMAP
20
50
20
78
D8
D8
F8
78
ENDCHAR
STARTCHAR char229
ENCODING 230
SWIDTH 768 0
DWIDTH 8 0
BBX 6 5 0 0
BITMAP
7C
D8
DC
F8
7C
ENDCHAR
STARTCHAR char99
ENCODING 231
SWIDTH 768 0
DWIDTH 8 0
BBX 5 7 1 -2
BITMAP
78
C0
C0
C0
78
30
60
ENDCHAR
STARTCHAR char101
ENCODING 232
SWIDTH 768 0
DWIDTH 8 0
BBX 5 8 1 0
BITMAP
C0
60
00
70
D8
F8
C0
78
ENDCHAR
STARTCHAR char101
ENCODING 233
SWIDTH 768 0
DWIDTH 8 0
BBX 5 8 1 0
BITMAP
30
60
00
70
D8
F8
C0
78
ENDCHAR
STARTCHAR char101
ENCODING 234
SWIDTH 768 0
DWIDTH 8 0
BBX 5 8 1 0
BITMAP
70
D8
00
70
D8
F8
C0
78
ENDCHAR
STARTCHAR char101
ENCODING 235
SWIDTH 768 0
DWIDTH 8 0
BBX 5 7 1 0
BITMAP
D8
00
70
D8
F8
C0
78
ENDCHAR
STARTCHAR char105
ENCODING 236
SWIDTH 768 0
DWIDTH 8 0
BBX 3 8 2 0
BITMAP
C0
60
00
60
60
60
60
60
ENDCHAR
STARTCHAR char105
ENCODING 237
SWIDTH 768 0
DWIDTH 8 0
BBX 3 8 3 0
BITMAP
60
C0
00
C0
C0
C0
C0
C0
ENDCHAR
STARTCHAR char105
ENCODING 238
SWIDTH 768 0
DWIDTH 8 0
BBX 4 8 2 0
BITMAP
60
F0
00
60
60
60
60
60
ENDCHAR
STARTCHAR char105
ENCODING 239
SWIDTH 768 0
DWIDTH 8 0
BBX 5 7 2 0
BITMAP
D8
00
60
60
60
60
60
ENDCHAR
STARTCHAR char240
ENCODING 240
SWIDTH 768 0
DWIDTH 8 0
BBX 5 8 0 0
BITMAP
78
70
D8
78
D8
D8
D8
F8
ENDCHAR
STARTCHAR char110
ENCODING 241
SWIDTH 768 0
DWIDTH 8 0
BBX 5 8 1 0
BITMAP
78
F0
00
F0
D8
D8
D8
D8
ENDCHAR
STARTCHAR char246
ENCODING 242
SWIDTH 768 0
DWIDTH 8 0
BBX 5 8 1 0
BITMAP
C0
60
00
70
D8
D8
D8
70
ENDCHAR
STARTCHAR char246
ENCODING 243
SWIDTH 768 0
DWIDTH 8 0
BBX 5 8 1 0
BITMAP
18
30
00
70
D8
D8
D8
70
ENDCHAR
STARTCHAR char246
ENCODING 244
SWIDTH 768 0
DWIDTH 8 0
BBX 5 8 1 0
BITMAP
70
D8
00
70
D8
D8
D8
70
ENDCHAR
STARTCHAR char246
ENCODING 245
SWIDTH 768 0
DWIDTH 8 0
BBX 5 8 1 0
BITMAP
78
F0
00
70
D8
D8
D8
70
ENDCHAR
STARTCHAR char246
ENCODING 246
SWIDTH 768 0
DWIDTH 8 0
BBX 6 7 0 0
BITMAP
6C
00
38
6C
6C
6C
38
ENDCHAR
STARTCHAR char247
ENCODING 247
SWIDTH 768 0
DWIDTH 8 0
BBX 4 5 0 2
BITMAP
60
00
F0
00
60
ENDCHAR
STARTCHAR char237
ENCODING 248
SWIDTH 768 0
DWIDTH 8 0
BBX 6 9 0 -1
BITMAP
0C
0C
78
DC
B4
EC
78
C0
C0
ENDCHAR
STARTCHAR char117
ENCODING 249
SWIDTH 768 0
DWIDTH 8 0
BBX 5 8 1 0
BITMAP
C0
60
00
D8
D8
D8
D8
78
ENDCHAR
STARTCHAR char117
ENCODING 250
SWIDTH 768 0
DWIDTH 8 0
BBX 5 8 1 0
BITMAP
30
60
00
D8
D8
D8
D8
78
ENDCHAR
STARTCHAR char117
ENCODING 251
SWIDTH 768 0
DWIDTH 8 0
BBX 5 8 1 0
BITMAP
70
D8
00
D8
D8
D8
D8
78
ENDCHAR
STARTCHAR char117
ENCODING 252
SWIDTH 768 0
DWIDTH 8 0
BBX 5 7 1 0
BITMAP
D8
00
D8
D8
D8
D8
78
ENDCHAR
STARTCHAR char121
ENCODING 253
SWIDTH 768 0
DWIDTH 8 0
BBX 5 10 1 -2
BITMAP
30
60
00
D8
D8
D8
D8
78
18
70
ENDCHAR
STARTCHAR char112
ENCODING 254
SWIDTH 768 0
DWIDTH 8 0
BBX 5 9 0 -1
BITMAP
C0
C0
F0
D8
D8
D8
F0
C0
C0
ENDCHAR
STARTCHAR char121
ENCODING 255
SWIDTH 768 0
DWIDTH 8 0
BBX 5 9 1 -2
BITMAP
D8
00
D8
D8
D8
D8
78
18
70
ENDCHAR
ENDFONT
